<?xml version="1.0" encoding="UTF-8" standalone="no"?>
<!-- Created with Inkscape (http://www.inkscape.org/) -->

<svg
   width="75.783371mm"
   height="87.096062mm"
   viewBox="0 0 75.783371 87.096062"
   version="1.1"
   id="svg1"
   inkscape:version="1.4.3 (0d15f75042, 2025-12-25)"
   sodipodi:docname="dagger.svg"
   inkscape:export-filename="daggerExport.svg"
   inkscape:export-xdpi="29.1632"
   inkscape:export-ydpi="29.1632"
   xmlns:inkscape="http://www.inkscape.org/namespaces/inkscape"
   xmlns:sodipodi="http://sodipodi.sourceforge.net/DTD/sodipodi-0.dtd"
   xmlns="http://www.w3.org/2000/svg"
   xmlns:svg="http://www.w3.org/2000/svg">
  <sodipodi:namedview
     id="namedview1"
     pagecolor="#ffffff"
     bordercolor="#000000"
     borderopacity="0.25"
     inkscape:showpageshadow="2"
     inkscape:pageopacity="0.0"
     inkscape:pagecheckerboard="0"
     inkscape:deskcolor="#d1d1d1"
     inkscape:document-units="mm"
     inkscape:zoom="0.92253393"
     inkscape:cx="20.595448"
     inkscape:cy="260.15303"
     inkscape:window-width="1220"
     inkscape:window-height="706"
     inkscape:window-x="0"
     inkscape:window-y="0"
     inkscape:window-maximized="1"
     inkscape:current-layer="layer1" />
  <defs
     id="defs1" />
  <g
     inkscape:label="Layer 1"
     inkscape:groupmode="layer"
     id="layer1">
    <path
       sodipodi:type="star"
       style="display:none;fill:#b3b3b3;stroke-width:0.264583"
       id="path2"
       inkscape:flatsided="true"
       sodipodi:sides="6"
       sodipodi:cx="97.864754"
       sodipodi:cy="66.145836"
       sodipodi:r1="43.549484"
       sodipodi:r2="21.774742"
       sodipodi:arg1="0.47995051"
       sodipodi:arg2="1.0035493"
       inkscape:rounded="0"
       inkscape:randomized="0"
       d="M 136.49392,86.254169 99.76501,109.65384 61.135843,89.545509 59.235587,46.037503 95.964498,22.63783 134.59366,42.746163 Z"
       inkscape:transform-center-x="-1.3061191"
       inkscape:transform-center-y="-10.014144"
       transform="rotate(2.0325235,704.83173,-1635.5853)" />
    <g
       id="g1"
       inkscape:label="dagger">
      <path
         style="fill:#dd8d9f;fill-opacity:1;stroke-width:0.148478"
         d="m 20.52569,64.029462 -1.155364,2.015748 8.62103,4.976392 1.132521,-2.087804 z"
         id="path1"
         sodipodi:nodetypes="ccccc" />
      <path
         style="fill:#dd8d9f;fill-opacity:1;stroke-width:0.148478"
         d="m 21.98014,61.499281 -1.155361,2.015743 8.621028,4.976393 1.132519,-2.0878 z"
         id="path1-9"
         sodipodi:nodetypes="ccccc" />
      <path
         style="fill:#c8658c;fill-opacity:1;stroke-width:0.0671317"
         d="m 21.214552,64.390008 0.286978,-0.48486 7.26735,4.196044 -0.333956,0.47201 z"
         id="path1-2"
         sodipodi:nodetypes="ccccc" />
      <path
         style="fill:#c8658c;fill-opacity:1;stroke-width:0.0671317"
         d="m 22.669,61.859822 0.286975,-0.484856 7.267352,4.196043 -0.333957,0.47201 z"
         id="path1-2-7"
         sodipodi:nodetypes="ccccc" />
      <path
         style="fill:#dd8d9f;fill-opacity:1;stroke-width:0.148478"
         d="m 23.434587,58.969097 -1.155362,2.015744 8.621024,4.976389 1.132521,-2.087804 z"
         id="path1-1"
         sodipodi:nodetypes="ccccc" />
      <path
         style="fill:#dd8d9f;fill-opacity:1;stroke-width:0.148478"
         d="m 24.889036,56.438913 -1.155361,2.015744 8.621025,4.976396 1.132525,-2.087811 z"
         id="path1-9-9"
         sodipodi:nodetypes="ccccc" />
      <path
         style="fill:#c8658c;fill-opacity:1;stroke-width:0.0671317"
         d="m 24.123447,59.329638 0.286975,-0.484856 7.267348,4.196039 -0.333956,0.472009 z"
         id="path1-2-4"
         sodipodi:nodetypes="ccccc" />
      <path
         style="fill:#c8658c;fill-opacity:1;stroke-width:0.0671317"
         d="m 25.577895,56.799454 0.286976,-0.484858 7.267354,4.196044 -0.333959,0.472014 z"
         id="path1-2-7-7"
         sodipodi:nodetypes="ccccc" />
      <path
         style="fill:#dd8d9f;fill-opacity:1;stroke-width:0.148478"
         d="m 26.343485,53.908729 -1.155361,2.015744 8.62103,4.97639 1.132521,-2.087804 z"
         id="path1-3"
         sodipodi:nodetypes="ccccc" />
      <path
         style="fill:#dd8d9f;fill-opacity:1;stroke-width:0.148478"
         d="m 27.797929,51.378542 -1.155363,2.015747 8.621024,4.976383 1.13252,-2.087803 z"
         id="path1-9-6"
         sodipodi:nodetypes="ccccc" />
      <path
         style="fill:#c8658c;fill-opacity:1;stroke-width:0.0671317"
         d="m 27.032347,54.269269 0.286974,-0.484854 7.267352,4.196035 -0.333959,0.472014 z"
         id="path1-2-1"
         sodipodi:nodetypes="ccccc" />
      <path
         style="fill:#c8658c;fill-opacity:1;stroke-width:0.0671317"
         d="m 28.486793,51.739085 0.286974,-0.484854 7.267351,4.196037 -0.333956,0.472008 z"
         id="path1-2-7-0"
         sodipodi:nodetypes="ccccc" />
      <path
         style="fill:#dd8d9f;fill-opacity:1;stroke-width:0.148478"
         d="m 29.252383,48.848359 -1.155362,2.015747 8.621028,4.976394 1.132521,-2.087804 z"
         id="path1-1-6"
         sodipodi:nodetypes="ccccc" />
      <path
         style="fill:#dd8d9f;fill-opacity:1;stroke-width:0.148478"
         d="m 30.706832,46.318176 -1.155362,2.015745 8.621026,4.976393 1.132521,-2.087804 z"
         id="path1-9-9-3"
         sodipodi:nodetypes="ccccc" />
      <path
         style="fill:#c8658c;fill-opacity:1;stroke-width:0.0671317"
         d="m 29.94124,49.208904 0.286976,-0.484856 7.26735,4.196039 -0.333956,0.47201 z"
         id="path1-2-4-2"
         sodipodi:nodetypes="ccccc" />
      <path
         style="fill:#c8658c;fill-opacity:1;stroke-width:0.0671317"
         d="m 31.395692,46.678715 0.286972,-0.484849 7.267355,4.19604 -0.333956,0.472007 z"
         id="path1-2-7-7-0"
         sodipodi:nodetypes="ccccc" />
      <path
         style="fill:#6b9bcf;fill-opacity:0.5;stroke-width:0.542418"
         d="M 42.99633,29.092975 32.873917,44.17681 40.185143,48.382786 48.554235,32.070323 54.141248,16.296785 Z"
         id="path1-9-9-3-2"
         sodipodi:nodetypes="cccccc" />
      <path
         style="fill:#667db4;fill-opacity:0.5;stroke-width:0.440654"
         d="m 44.500674,29.727336 -10.384876,15.166472 4.827462,2.771976 8.15843,-16.668262 3.420408,-8.609465 z"
         id="path1-9-9-3-2-4"
         sodipodi:nodetypes="cccccc" />
      <path
         style="fill:#dd8d9f;fill-opacity:1;stroke-width:0.201552"
         d="m 29.204929,40.508088 -1.831267,3.198568 15.885357,9.170459 1.907241,-3.37916 -2.037786,0.56672 -13.232901,-7.589974 z"
         id="path1-9-9-3-9"
         sodipodi:nodetypes="ccccccc" />
    </g>
  </g>
</svg>
